<mxfile host="app.diagrams.net" modified="2021-05-28T14:24:22.529Z" agent="5.0 (Windows NT 10.0; Win64; x64) AppleWebKit/537.36 (KHTML, like Gecko) Chrome/89.0.4389.90 Safari/537.36" etag="s9y5h8LJ-PcYBpqVj7iF" version="14.6.13" type="github">
  <diagram id="rXgp7cBZWFdDlfccxSCt" name="Page-1">
    <mxGraphModel dx="1185" dy="635" grid="1" gridSize="10" guides="1" tooltips="1" connect="1" arrows="1" fold="1" page="1" pageScale="1" pageWidth="827" pageHeight="1169" math="0" shadow="0">
      <root>
        <mxCell id="0" />
        <mxCell id="1" parent="0" />
        <mxCell id="ohS7AvulIUzn7pixfp3v-4" value="&lt;font style=&quot;font-size: 10px&quot; color=&quot;rgba(0, 0, 0, 0)&quot;&gt;Block Pools&lt;/font&gt;" style="rounded=0;whiteSpace=wrap;html=1;verticalAlign=bottom;fontSize=10;" vertex="1" parent="1">
          <mxGeometry x="220" y="220" width="370" height="44" as="geometry" />
        </mxCell>
        <mxCell id="ohS7AvulIUzn7pixfp3v-6" value="&lt;p style=&quot;line-height: 100%&quot;&gt;&lt;/p&gt;&lt;p&gt;&lt;span style=&quot;color: rgb(51 , 51 , 51) ; font-family: sans-serif ; font-size: 14px ; background-color: rgb(249 , 249 , 249)&quot;&gt;yycluster01&lt;/span&gt;&lt;br&gt;&lt;/p&gt;&lt;p&gt;&lt;/p&gt;" style="rounded=0;whiteSpace=wrap;html=1;dashed=1;fillColor=none;align=left;horizontal=1;verticalAlign=top;" vertex="1" parent="1">
          <mxGeometry x="180" y="77" width="110" height="193" as="geometry" />
        </mxCell>
        <mxCell id="ohS7AvulIUzn7pixfp3v-17" style="rounded=0;orthogonalLoop=1;jettySize=auto;html=1;exitX=0;exitY=0.5;exitDx=0;exitDy=0;fontSize=10;endArrow=classic;endFill=1;startArrow=classic;startFill=1;" edge="1" parent="1" source="ohS7AvulIUzn7pixfp3v-2" target="ohS7AvulIUzn7pixfp3v-13">
          <mxGeometry relative="1" as="geometry" />
        </mxCell>
        <mxCell id="ohS7AvulIUzn7pixfp3v-2" value="ns 1" style="triangle;whiteSpace=wrap;html=1;rotation=-90;" vertex="1" parent="1">
          <mxGeometry x="205" y="104" width="60" height="80" as="geometry" />
        </mxCell>
        <mxCell id="ohS7AvulIUzn7pixfp3v-1" value="Common Storage" style="rounded=1;whiteSpace=wrap;html=1;verticalAlign=bottom;" vertex="1" parent="1">
          <mxGeometry x="180" y="330" width="440" height="102.33" as="geometry" />
        </mxCell>
        <mxCell id="ohS7AvulIUzn7pixfp3v-7" style="edgeStyle=orthogonalEdgeStyle;rounded=0;orthogonalLoop=1;jettySize=auto;html=1;exitX=0.5;exitY=1;exitDx=0;exitDy=0;" edge="1" parent="1" source="ohS7AvulIUzn7pixfp3v-6" target="ohS7AvulIUzn7pixfp3v-6">
          <mxGeometry relative="1" as="geometry" />
        </mxCell>
        <mxCell id="ohS7AvulIUzn7pixfp3v-27" style="edgeStyle=orthogonalEdgeStyle;rounded=0;orthogonalLoop=1;jettySize=auto;html=1;exitX=0.5;exitY=1;exitDx=0;exitDy=0;entryX=0.023;entryY=0;entryDx=0;entryDy=0;entryPerimeter=0;fontSize=10;startArrow=none;startFill=0;endArrow=none;endFill=0;" edge="1" parent="1" source="ohS7AvulIUzn7pixfp3v-9" target="ohS7AvulIUzn7pixfp3v-1">
          <mxGeometry relative="1" as="geometry" />
        </mxCell>
        <mxCell id="ohS7AvulIUzn7pixfp3v-9" value="&lt;p style=&quot;line-height: 100%&quot;&gt;&lt;/p&gt;&lt;p&gt;&lt;font face=&quot;Verdana&quot;&gt;yycluster02&lt;/font&gt;&lt;/p&gt;&lt;p&gt;&lt;/p&gt;" style="rounded=0;whiteSpace=wrap;html=1;dashed=1;fillColor=none;align=left;horizontal=1;verticalAlign=top;" vertex="1" parent="1">
          <mxGeometry x="350" y="77" width="110" height="193" as="geometry" />
        </mxCell>
        <mxCell id="ohS7AvulIUzn7pixfp3v-18" style="edgeStyle=none;rounded=0;orthogonalLoop=1;jettySize=auto;html=1;exitX=0;exitY=0.5;exitDx=0;exitDy=0;fontSize=10;startArrow=classic;startFill=1;endArrow=classic;endFill=1;" edge="1" parent="1" source="ohS7AvulIUzn7pixfp3v-10" target="ohS7AvulIUzn7pixfp3v-15">
          <mxGeometry relative="1" as="geometry" />
        </mxCell>
        <mxCell id="ohS7AvulIUzn7pixfp3v-10" value="ns k" style="triangle;whiteSpace=wrap;html=1;rotation=-90;" vertex="1" parent="1">
          <mxGeometry x="375" y="104" width="60" height="80" as="geometry" />
        </mxCell>
        <mxCell id="ohS7AvulIUzn7pixfp3v-11" value="&lt;p style=&quot;line-height: 100%&quot;&gt;&lt;/p&gt;&lt;p&gt;&lt;font face=&quot;Verdana&quot;&gt;后续扩展&lt;/font&gt;&lt;/p&gt;&lt;p&gt;&lt;/p&gt;" style="rounded=0;whiteSpace=wrap;html=1;dashed=1;fillColor=none;align=left;horizontal=1;verticalAlign=top;" vertex="1" parent="1">
          <mxGeometry x="510" y="77" width="110" height="193" as="geometry" />
        </mxCell>
        <mxCell id="ohS7AvulIUzn7pixfp3v-19" style="edgeStyle=none;rounded=0;orthogonalLoop=1;jettySize=auto;html=1;exitX=0;exitY=0.5;exitDx=0;exitDy=0;fontSize=10;startArrow=classic;startFill=1;endArrow=classic;endFill=1;" edge="1" parent="1" source="ohS7AvulIUzn7pixfp3v-12" target="ohS7AvulIUzn7pixfp3v-16">
          <mxGeometry relative="1" as="geometry" />
        </mxCell>
        <mxCell id="ohS7AvulIUzn7pixfp3v-12" value="ns n" style="triangle;whiteSpace=wrap;html=1;rotation=-90;" vertex="1" parent="1">
          <mxGeometry x="535" y="104" width="60" height="80" as="geometry" />
        </mxCell>
        <mxCell id="ohS7AvulIUzn7pixfp3v-13" value="pool 1" style="rounded=1;whiteSpace=wrap;html=1;dashed=1;fillColor=none;align=center;" vertex="1" parent="1">
          <mxGeometry x="230" y="221" width="60" height="20" as="geometry" />
        </mxCell>
        <mxCell id="ohS7AvulIUzn7pixfp3v-15" value="&lt;font style=&quot;font-size: 11px&quot;&gt;pool 2&lt;/font&gt;" style="rounded=1;whiteSpace=wrap;html=1;dashed=1;fillColor=none;align=center;fontSize=10;" vertex="1" parent="1">
          <mxGeometry x="375" y="221" width="60" height="20" as="geometry" />
        </mxCell>
        <mxCell id="ohS7AvulIUzn7pixfp3v-16" value="&lt;font style=&quot;font-size: 11px&quot;&gt;pool 3&lt;/font&gt;" style="rounded=1;whiteSpace=wrap;html=1;dashed=1;fillColor=none;align=center;fontSize=10;" vertex="1" parent="1">
          <mxGeometry x="526" y="221" width="60" height="20" as="geometry" />
        </mxCell>
        <mxCell id="ohS7AvulIUzn7pixfp3v-20" value="Namespace" style="shape=flexArrow;endArrow=classic;startArrow=classic;html=1;fontSize=10;verticalAlign=bottom;horizontal=0;spacingTop=10;spacingRight=20;" edge="1" parent="1">
          <mxGeometry width="100" height="100" relative="1" as="geometry">
            <mxPoint x="140" y="243.5" as="sourcePoint" />
            <mxPoint x="140" y="103.5" as="targetPoint" />
            <Array as="points">
              <mxPoint x="140" y="170" />
            </Array>
          </mxGeometry>
        </mxCell>
        <mxCell id="ohS7AvulIUzn7pixfp3v-24" value="DataNode1" style="shape=cylinder3;whiteSpace=wrap;html=1;boundedLbl=1;backgroundOutline=1;size=15;fontSize=10;fillColor=none;align=center;" vertex="1" parent="1">
          <mxGeometry x="230" y="350.58" width="60" height="61.17" as="geometry" />
        </mxCell>
        <mxCell id="ohS7AvulIUzn7pixfp3v-28" style="edgeStyle=orthogonalEdgeStyle;rounded=0;orthogonalLoop=1;jettySize=auto;html=1;exitX=0.5;exitY=1;exitDx=0;exitDy=0;entryX=0.951;entryY=0;entryDx=0;entryDy=0;entryPerimeter=0;fontSize=10;startArrow=none;startFill=0;endArrow=none;endFill=0;" edge="1" parent="1" source="ohS7AvulIUzn7pixfp3v-9" target="ohS7AvulIUzn7pixfp3v-1">
          <mxGeometry relative="1" as="geometry">
            <mxPoint x="415" y="280" as="sourcePoint" />
            <mxPoint x="200.12000000000012" y="340" as="targetPoint" />
          </mxGeometry>
        </mxCell>
        <mxCell id="ohS7AvulIUzn7pixfp3v-30" value="DataNode3" style="shape=cylinder3;whiteSpace=wrap;html=1;boundedLbl=1;backgroundOutline=1;size=15;fontSize=10;fillColor=none;align=center;" vertex="1" parent="1">
          <mxGeometry x="466" y="350.58" width="60" height="61.17" as="geometry" />
        </mxCell>
        <mxCell id="ohS7AvulIUzn7pixfp3v-31" value="DataNode2" style="shape=cylinder3;whiteSpace=wrap;html=1;boundedLbl=1;backgroundOutline=1;size=15;fontSize=10;fillColor=none;align=center;" vertex="1" parent="1">
          <mxGeometry x="354" y="350.58" width="60" height="61.17" as="geometry" />
        </mxCell>
        <mxCell id="ohS7AvulIUzn7pixfp3v-33" value="Block Storage" style="shape=flexArrow;endArrow=classic;startArrow=classic;html=1;fontSize=10;verticalAlign=bottom;horizontal=0;spacingTop=10;spacingRight=20;" edge="1" parent="1">
          <mxGeometry width="100" height="100" relative="1" as="geometry">
            <mxPoint x="140" y="432.33000000000004" as="sourcePoint" />
            <mxPoint x="140" y="292.3299999999999" as="targetPoint" />
            <Array as="points">
              <mxPoint x="140" y="358.83000000000004" />
            </Array>
          </mxGeometry>
        </mxCell>
        <mxCell id="ohS7AvulIUzn7pixfp3v-36" value="Text" style="text;html=1;align=center;verticalAlign=middle;resizable=0;points=[];autosize=1;strokeColor=none;fontSize=10;" vertex="1" parent="1">
          <mxGeometry x="680" y="340" width="40" height="20" as="geometry" />
        </mxCell>
        <mxCell id="ohS7AvulIUzn7pixfp3v-37" value="2亿文件&amp;nbsp; 1.9亿块" style="text;html=1;align=center;verticalAlign=middle;resizable=0;points=[];autosize=1;strokeColor=none;fontSize=10;" vertex="1" parent="1">
          <mxGeometry x="180" y="50" width="110" height="20" as="geometry" />
        </mxCell>
        <mxCell id="ohS7AvulIUzn7pixfp3v-38" value="2亿文件&amp;nbsp; 1.9亿块" style="text;html=1;align=center;verticalAlign=middle;resizable=0;points=[];autosize=1;strokeColor=none;fontSize=10;" vertex="1" parent="1">
          <mxGeometry x="350" y="50" width="110" height="20" as="geometry" />
        </mxCell>
      </root>
    </mxGraphModel>
  </diagram>
</mxfile>
